<?xml version="1.0" standalone="no"?><svg xmlns="http://www.w3.org/2000/svg" viewBox="0 0 1440 320"><path fill="#a004cc" fill-opacity="1" d="M0,288L40,266.7C80,245,160,203,240,202.7C320,203,400,245,480,245.3C560,245,640,203,720,186.7C800,171,880,181,960,181.3C1040,181,1120,171,1200,144C1280,117,1360,75,1400,53.3L1440,32L1440,320L1400,320C1360,320,1280,320,1200,320C1120,320,1040,320,960,320C880,320,800,320,720,320C640,320,560,320,480,320C400,320,320,320,240,320C160,320,80,320,40,320L0,320Z"></path></svg>